ffmpeg started on 2025-06-06 at 18:53:34
Report written to "D:\Convert\FFMetrics\reports\ssim_report-6.txt"
Log level: 32
Command line:
ffmpeg -hide_banner -nostdin -i "G:\\\xc0\xed\xe8\xec\xe5\\\xce\xed\xe3\xee\xe8\xed\xe3\xe8\\!_36_\xce\xf1\xe5\xed\xfc_2024\\DreamCast\\\xcf\xf3\xed\xe8\xf0\xf3 - \xec\xe8\xeb\xe0\xff \xf1\xeb\xe8\xe7\xfc\\[DC] Puniru wa Kawaii Slime - 07_Telegram_HEVC.mkv" -i "G:\\\xc0\xed\xe8\xec\xe5\\\xce\xed\xe3\xee\xe8\xed\xe3\xe8\\!_36_\xce\xf1\xe5\xed\xfc_2024\\DreamCast\\\xcf\xf3\xed\xe8\xf0\xf3 - \xec\xe8\xeb\xe0\xff \xf1\xeb\xe8\xe7\xfc\\[DC] Puniru wa Kawaii Slime - 07_Telegram.mp4" -lavfi "[0:v]settb=AVTB,setpts=PTS-STARTPTS,format=pix_fmts=yuv420p10,fps=24000/1001,scale=1920:1080:flags=bicubic[main];[1:v]settb=AVTB,setpts=PTS-STARTPTS,format=pix_fmts=yuv420p,fps=24000/1001,scale=1920:1080:flags=bicubic[ref];[main][ref]ssim=eof_action=endall:stats_file='D\\:/Convert/FFMetrics/logs/ssim_logfile-6.txt'" -f null -
Input #0, matroska,webm, from 'G:\Аниме\Онгоинги\!_36_Осень_2024\DreamCast\Пуниру - милая слизь\[DC] Puniru wa Kawaii Slime - 07_Telegram_HEVC.mkv':
  Metadata:
    COMPATIBLE_BRANDS: isomiso2avc1mp41
    MAJOR_BRAND     : isom
    MINOR_VERSION   : 512
    ENCODER         : Lavf61.7.100
  Duration: 00:23:56.67, start: -0.021000, bitrate: 1152 kb/s
  Stream #0:0: Video: hevc (Main 10), yuv420p10le(tv, bt709, progressive), 1920x1080 [SAR 1:1 DAR 16:9], 23.98 fps, 23.98 tbr, 1k tbn (default)
      Metadata:
        HANDLER_NAME    : VideoHandler
        VENDOR_ID       : [0][0][0][0]
        ENCODER         : Lavc61.19.100 libx265
        BPS             : 954274
        DURATION        : 00:23:56.518708333
        NUMBER_OF_FRAMES: 34442
        NUMBER_OF_BYTES : 171354102
        _STATISTICS_WRITING_APP: mkvpropedit v66.0.0 ('Josie') 64-bit
        _STATISTICS_WRITING_DATE_UTC: 2025-06-03 12:55:24
        _STATISTICS_TAGS: BPS DURATION NUMBER_OF_FRAMES NUMBER_OF_BYTES
  Stream #0:1: Audio: aac (LC), 48000 Hz, stereo, fltp (default)
      Metadata:
        HANDLER_NAME    : SoundHandler
        VENDOR_ID       : [0][0][0][0]
        ENCODER         : Lavc61.19.100 aac
        BPS             : 193923
        DURATION        : 00:23:56.672000000
        NUMBER_OF_FRAMES: 67345
        NUMBER_OF_BYTES : 34825556
        _STATISTICS_WRITING_APP: mkvpropedit v66.0.0 ('Josie') 64-bit
        _STATISTICS_WRITING_DATE_UTC: 2025-06-03 12:55:24
        _STATISTICS_TAGS: BPS DURATION NUMBER_OF_FRAMES NUMBER_OF_BYTES
Input #1, mov,mp4,m4a,3gp,3g2,mj2, from 'G:\Аниме\Онгоинги\!_36_Осень_2024\DreamCast\Пуниру - милая слизь\[DC] Puniru wa Kawaii Slime - 07_Telegram.mp4':
  Metadata:
    major_brand     : isom
    minor_version   : 512
    compatible_brands: isomiso2avc1mp41
    encoder         : Lavf61.1.100
  Duration: 00:23:56.64, start: 0.000000, bitrate: 3554 kb/s
  Stream #1:0[0x1](und): Video: h264 (High) (avc1 / 0x31637661), yuv420p(tv, bt709, progressive), 1920x1080 [SAR 1:1 DAR 16:9], 3406 kb/s, 23.98 fps, 23.98 tbr, 24k tbn (default)
      Metadata:
        handler_name    : VideoHandler
        vendor_id       : [0][0][0][0]
        encoder         : Lavc61.3.100 h264_qsv
  Stream #1:1[0x2](und): Audio: aac (HE-AACv2) (mp4a / 0x6134706D), 48000 Hz, stereo, fltp, 144 kb/s (default)
      Metadata:
        handler_name    : SoundHandler
        vendor_id       : [0][0][0][0]
Stream mapping:
  Stream #0:0 (hevc) -> settb:default
  Stream #1:0 (h264) -> settb:default
  ssim:default -> Stream #0:0 (wrapped_avframe)
  Stream #0:1 -> #0:1 (aac (native) -> pcm_s16le (native))
Output #0, null, to 'pipe:':
  Metadata:
    COMPATIBLE_BRANDS: isomiso2avc1mp41
    MAJOR_BRAND     : isom
    MINOR_VERSION   : 512
    encoder         : Lavf61.7.100
  Stream #0:0: Video: wrapped_avframe, yuv420p10le(tv, bt709, progressive), 1920x1080 [SAR 1:1 DAR 16:9], q=2-31, 200 kb/s, 23.98 fps, 23.98 tbn
      Metadata:
        encoder         : Lavc61.19.100 wrapped_avframe
  Stream #0:1: Audio: pcm_s16le, 48000 Hz, stereo, s16, 1536 kb/s (default)
      Metadata:
        HANDLER_NAME    : SoundHandler
        VENDOR_ID       : [0][0][0][0]
        _STATISTICS_TAGS: BPS DURATION NUMBER_OF_FRAMES NUMBER_OF_BYTES
        BPS             : 193923
        DURATION        : 00:23:56.672000000
        NUMBER_OF_FRAMES: 67345
        NUMBER_OF_BYTES : 34825556
        _STATISTICS_WRITING_APP: mkvpropedit v66.0.0 ('Josie') 64-bit
        _STATISTICS_WRITING_DATE_UTC: 2025-06-03 12:55:24
        encoder         : Lavc61.19.100 pcm_s16le
frame=  178 fps=0.0 q=-0.0 size=N/A time=00:00:07.42 bitrate=N/A speed=14.2x    frame=  390 fps=376 q=-0.0 size=N/A time=00:00:16.26 bitrate=N/A speed=15.7x    frame=  564 fps=364 q=-0.0 size=N/A time=00:00:23.52 bitrate=N/A speed=15.2x    frame=  763 fps=368 q=-0.0 size=N/A time=00:00:31.82 bitrate=N/A speed=15.4x    frame=  973 fps=378 q=-0.0 size=N/A time=00:00:40.58 bitrate=N/A speed=15.8x    frame= 1208 fps=390 q=-0.0 size=N/A time=00:00:50.38 bitrate=N/A speed=16.2x    frame= 1399 fps=386 q=-0.0 size=N/A time=00:00:58.34 bitrate=N/A speed=16.1x    frame= 1552 fps=374 q=-0.0 size=N/A time=00:01:04.73 bitrate=N/A speed=15.6x    frame= 1721 fps=369 q=-0.0 size=N/A time=00:01:11.78 bitrate=N/A speed=15.4x    frame= 1909 fps=369 q=-0.0 size=N/A time=00:01:19.62 bitrate=N/A speed=15.4x    frame= 2118 fps=372 q=-0.0 size=N/A time=00:01:28.33 bitrate=N/A speed=15.5x    frame= 2350 fps=378 q=-0.0 size=N/A time=00:01:38.01 bitrate=N/A speed=15.8x    frame= 2568 fps=382 q=-0.0 size=N/A time=00:01:47.10 bitrate=N/A speed=15.9x    frame= 2806 fps=388 q=-0.0 size=N/A time=00:01:57.03 bitrate=N/A speed=16.2x    frame= 3049 fps=393 q=-0.0 size=N/A time=00:02:07.16 bitrate=N/A speed=16.4x    frame= 3311 fps=400 q=-0.0 size=N/A time=00:02:18.09 bitrate=N/A speed=16.7x    frame= 3570 fps=406 q=-0.0 size=N/A time=00:02:28.89 bitrate=N/A speed=16.9x    frame= 3813 fps=410 q=-0.0 size=N/A time=00:02:39.03 bitrate=N/A speed=17.1x    frame= 4102 fps=418 q=-0.0 size=N/A time=00:02:51.08 bitrate=N/A speed=17.4x    frame= 4363 fps=422 q=-0.0 size=N/A time=00:03:01.97 bitrate=N/A speed=17.6x    frame= 4633 fps=427 q=-0.0 size=N/A time=00:03:13.23 bitrate=N/A speed=17.8x    frame= 4916 fps=433 q=-0.0 size=N/A time=00:03:25.03 bitrate=N/A speed=18.1x    frame= 5191 fps=437 q=-0.0 size=N/A time=00:03:36.50 bitrate=N/A speed=18.2x    frame= 5421 fps=437 q=-0.0 size=N/A time=00:03:46.10 bitrate=N/A speed=18.2x    frame= 5658 fps=438 q=-0.0 size=N/A time=00:03:55.98 bitrate=N/A speed=18.3x    frame= 5887 fps=439 q=-0.0 size=N/A time=00:04:05.53 bitrate=N/A speed=18.3x    frame= 6098 fps=437 q=-0.0 size=N/A time=00:04:14.33 bitrate=N/A speed=18.2x    frame= 6289 fps=435 q=-0.0 size=N/A time=00:04:22.30 bitrate=N/A speed=18.1x    frame= 6546 fps=437 q=-0.0 size=N/A time=00:04:33.02 bitrate=N/A speed=18.2x    frame= 6814 fps=440 q=-0.0 size=N/A time=00:04:44.20 bitrate=N/A speed=18.3x    frame= 7094 fps=443 q=-0.0 size=N/A time=00:04:55.87 bitrate=N/A speed=18.5x    frame= 7357 fps=445 q=-0.0 size=N/A time=00:05:06.84 bitrate=N/A speed=18.6x    frame= 7606 fps=447 q=-0.0 size=N/A time=00:05:17.23 bitrate=N/A speed=18.6x    frame= 7849 fps=447 q=-0.0 size=N/A time=00:05:27.36 bitrate=N/A speed=18.6x    frame= 8079 fps=447 q=-0.0 size=N/A time=00:05:36.96 bitrate=N/A speed=18.7x    frame= 8363 fps=450 q=-0.0 size=N/A time=00:05:48.80 bitrate=N/A speed=18.8x    frame= 8619 fps=451 q=-0.0 size=N/A time=00:05:59.48 bitrate=N/A speed=18.8x    frame= 8907 fps=454 q=-0.0 size=N/A time=00:06:11.49 bitrate=N/A speed=18.9x    frame= 9155 fps=455 q=-0.0 size=N/A time=00:06:21.83 bitrate=N/A speed=  19x    frame= 9357 fps=453 q=-0.0 size=N/A time=00:06:30.26 bitrate=N/A speed=18.9x    frame= 9618 fps=454 q=-0.0 size=N/A time=00:06:41.15 bitrate=N/A speed=  19x    frame= 9874 fps=455 q=-0.0 size=N/A time=00:06:51.82 bitrate=N/A speed=  19x    frame=10124 fps=456 q=-0.0 size=N/A time=00:07:02.25 bitrate=N/A speed=  19x    frame=10393 fps=458 q=-0.0 size=N/A time=00:07:13.47 bitrate=N/A speed=19.1x    frame=10673 fps=460 q=-0.0 size=N/A time=00:07:25.15 bitrate=N/A speed=19.2x    frame=10966 fps=462 q=-0.0 size=N/A time=00:07:37.37 bitrate=N/A speed=19.3x    frame=11224 fps=463 q=-0.0 size=N/A time=00:07:48.13 bitrate=N/A speed=19.3x    frame=11508 fps=465 q=-0.0 size=N/A time=00:07:59.97 bitrate=N/A speed=19.4x    frame=11740 fps=464 q=-0.0 size=N/A time=00:08:09.65 bitrate=N/A speed=19.4x    frame=12008 fps=465 q=-0.0 size=N/A time=00:08:20.83 bitrate=N/A speed=19.4x    frame=12270 fps=466 q=-0.0 size=N/A time=00:08:31.76 bitrate=N/A speed=19.4x    frame=12549 fps=468 q=-0.0 size=N/A time=00:08:43.39 bitrate=N/A speed=19.5x    frame=12797 fps=468 q=-0.0 size=N/A time=00:08:53.74 bitrate=N/A speed=19.5x    frame=13080 fps=469 q=-0.0 size=N/A time=00:09:05.54 bitrate=N/A speed=19.6x    frame=13364 fps=471 q=-0.0 size=N/A time=00:09:17.39 bitrate=N/A speed=19.6x    frame=13605 fps=471 q=-0.0 size=N/A time=00:09:27.44 bitrate=N/A speed=19.6x    frame=13890 fps=472 q=-0.0 size=N/A time=00:09:39.32 bitrate=N/A speed=19.7x    frame=14128 fps=472 q=-0.0 size=N/A time=00:09:49.25 bitrate=N/A speed=19.7x    frame=14383 fps=472 q=-0.0 size=N/A time=00:09:59.89 bitrate=N/A speed=19.7x    frame=14643 fps=473 q=-0.0 size=N/A time=00:10:10.73 bitrate=N/A speed=19.7x    frame=14857 fps=472 q=-0.0 size=N/A time=00:10:19.66 bitrate=N/A speed=19.7x    frame=15084 fps=471 q=-0.0 size=N/A time=00:10:29.12 bitrate=N/A speed=19.7x    frame=15325 fps=471 q=-0.0 size=N/A time=00:10:39.18 bitrate=N/A speed=19.7x    frame=15575 fps=471 q=-0.0 size=N/A time=00:10:49.60 bitrate=N/A speed=19.7x    frame=15849 fps=472 q=-0.0 size=N/A time=00:11:01.03 bitrate=N/A speed=19.7x    frame=16093 fps=472 q=-0.0 size=N/A time=00:11:11.21 bitrate=N/A speed=19.7x    frame=16358 fps=473 q=-0.0 size=N/A time=00:11:22.26 bitrate=N/A speed=19.7x    frame=16614 fps=473 q=-0.0 size=N/A time=00:11:32.94 bitrate=N/A speed=19.7x    frame=16880 fps=474 q=-0.0 size=N/A time=00:11:44.03 bitrate=N/A speed=19.8x    frame=17124 fps=474 q=-0.0 size=N/A time=00:11:54.21 bitrate=N/A speed=19.8x    frame=17369 fps=474 q=-0.0 size=N/A time=00:12:04.43 bitrate=N/A speed=19.8x    frame=17663 fps=475 q=-0.0 size=N/A time=00:12:16.69 bitrate=N/A speed=19.8x    frame=17933 fps=476 q=-0.0 size=N/A time=00:12:27.95 bitrate=N/A speed=19.9x    frame=18157 fps=475 q=-0.0 size=N/A time=00:12:37.29 bitrate=N/A speed=19.8x    frame=18416 fps=476 q=-0.0 size=N/A time=00:12:48.10 bitrate=N/A speed=19.8x    frame=18692 fps=476 q=-0.0 size=N/A time=00:12:59.61 bitrate=N/A speed=19.9x    frame=18968 fps=477 q=-0.0 size=N/A time=00:13:11.12 bitrate=N/A speed=19.9x    frame=19216 fps=477 q=-0.0 size=N/A time=00:13:21.46 bitrate=N/A speed=19.9x    frame=19469 fps=477 q=-0.0 size=N/A time=00:13:32.01 bitrate=N/A speed=19.9x    frame=19756 fps=478 q=-0.0 size=N/A time=00:13:43.98 bitrate=N/A speed=19.9x    frame=20036 fps=479 q=-0.0 size=N/A time=00:13:55.66 bitrate=N/A speed=  20x    frame=20319 fps=480 q=-0.0 size=N/A time=00:14:07.47 bitrate=N/A speed=  20x    frame=20576 fps=480 q=-0.0 size=N/A time=00:14:18.19 bitrate=N/A speed=  20x    frame=20839 fps=481 q=-0.0 size=N/A time=00:14:29.15 bitrate=N/A speed=  20x    frame=21126 fps=481 q=-0.0 size=N/A time=00:14:41.13 bitrate=N/A speed=20.1x    frame=21403 fps=482 q=-0.0 size=N/A time=00:14:52.68 bitrate=N/A speed=20.1x    frame=21683 fps=483 q=-0.0 size=N/A time=00:15:04.36 bitrate=N/A speed=20.1x    frame=21948 fps=483 q=-0.0 size=N/A time=00:15:15.41 bitrate=N/A speed=20.2x    frame=22220 fps=484 q=-0.0 size=N/A time=00:15:26.75 bitrate=N/A speed=20.2x    frame=22498 fps=484 q=-0.0 size=N/A time=00:15:38.35 bitrate=N/A speed=20.2x    frame=22788 fps=485 q=-0.0 size=N/A time=00:15:50.44 bitrate=N/A speed=20.2x    frame=23068 fps=486 q=-0.0 size=N/A time=00:16:02.12 bitrate=N/A speed=20.3x    frame=23352 fps=486 q=-0.0 size=N/A time=00:16:13.97 bitrate=N/A speed=20.3x    frame=23631 fps=487 q=-0.0 size=N/A time=00:16:25.60 bitrate=N/A speed=20.3x    frame=23920 fps=488 q=-0.0 size=N/A time=00:16:37.66 bitrate=N/A speed=20.3x    frame=24114 fps=487 q=-0.0 size=N/A time=00:16:45.75 bitrate=N/A speed=20.3x    frame=24339 fps=486 q=-0.0 size=N/A time=00:16:55.13 bitrate=N/A speed=20.3x    frame=24614 fps=487 q=-0.0 size=N/A time=00:17:06.60 bitrate=N/A speed=20.3x    frame=24846 fps=486 q=-0.0 size=N/A time=00:17:16.28 bitrate=N/A speed=20.3x    frame=25082 fps=486 q=-0.0 size=N/A time=00:17:26.12 bitrate=N/A speed=20.3x    frame=25330 fps=486 q=-0.0 size=N/A time=00:17:36.47 bitrate=N/A speed=20.3x    frame=25572 fps=486 q=-0.0 size=N/A time=00:17:46.56 bitrate=N/A speed=20.3x    frame=25842 fps=486 q=-0.0 size=N/A time=00:17:57.82 bitrate=N/A speed=20.3x    frame=26105 fps=486 q=-0.0 size=N/A time=00:18:08.79 bitrate=N/A speed=20.3x    frame=26385 fps=487 q=-0.0 size=N/A time=00:18:20.47 bitrate=N/A speed=20.3x    frame=26663 fps=487 q=-0.0 size=N/A time=00:18:32.06 bitrate=N/A speed=20.3x    frame=26877 fps=487 q=-0.0 size=N/A time=00:18:40.99 bitrate=N/A speed=20.3x    frame=27124 fps=487 q=-0.0 size=N/A time=00:18:51.29 bitrate=N/A speed=20.3x    frame=27405 fps=487 q=-0.0 size=N/A time=00:19:03.01 bitrate=N/A speed=20.3x    frame=27637 fps=487 q=-0.0 size=N/A time=00:19:12.69 bitrate=N/A speed=20.3x    frame=27921 fps=487 q=-0.0 size=N/A time=00:19:24.53 bitrate=N/A speed=20.3x    frame=28205 fps=488 q=-0.0 size=N/A time=00:19:36.38 bitrate=N/A speed=20.3x    frame=28458 fps=488 q=-0.0 size=N/A time=00:19:46.93 bitrate=N/A speed=20.4x    frame=28721 fps=488 q=-0.0 size=N/A time=00:19:57.90 bitrate=N/A speed=20.4x    frame=29011 fps=489 q=-0.0 size=N/A time=00:20:10.00 bitrate=N/A speed=20.4x    frame=29249 fps=489 q=-0.0 size=N/A time=00:20:19.92 bitrate=N/A speed=20.4x    frame=29487 fps=488 q=-0.0 size=N/A time=00:20:29.85 bitrate=N/A speed=20.4x    frame=29749 fps=488 q=-0.0 size=N/A time=00:20:40.78 bitrate=N/A speed=20.4x    frame=29990 fps=488 q=-0.0 size=N/A time=00:20:50.83 bitrate=N/A speed=20.4x    frame=30229 fps=488 q=-0.0 size=N/A time=00:21:00.80 bitrate=N/A speed=20.4x    frame=30484 fps=488 q=-0.0 size=N/A time=00:21:11.43 bitrate=N/A speed=20.4x    frame=30738 fps=488 q=-0.0 size=N/A time=00:21:22.03 bitrate=N/A speed=20.4x    frame=31006 fps=488 q=-0.0 size=N/A time=00:21:33.20 bitrate=N/A speed=20.4x    frame=31233 fps=488 q=-0.0 size=N/A time=00:21:42.67 bitrate=N/A speed=20.4x    frame=31528 fps=489 q=-0.0 size=N/A time=00:21:54.98 bitrate=N/A speed=20.4x    frame=31789 fps=489 q=-0.0 size=N/A time=00:22:05.86 bitrate=N/A speed=20.4x    frame=32045 fps=489 q=-0.0 size=N/A time=00:22:16.54 bitrate=N/A speed=20.4x    frame=32249 fps=488 q=-0.0 size=N/A time=00:22:25.05 bitrate=N/A speed=20.4x    frame=32478 fps=488 q=-0.0 size=N/A time=00:22:34.60 bitrate=N/A speed=20.3x    frame=32683 fps=487 q=-0.0 size=N/A time=00:22:43.15 bitrate=N/A speed=20.3x    frame=32887 fps=486 q=-0.0 size=N/A time=00:22:51.66 bitrate=N/A speed=20.3x    frame=33117 fps=486 q=-0.0 size=N/A time=00:23:01.25 bitrate=N/A speed=20.3x    frame=33341 fps=486 q=-0.0 size=N/A time=00:23:10.59 bitrate=N/A speed=20.3x    frame=33538 fps=485 q=-0.0 size=N/A time=00:23:18.81 bitrate=N/A speed=20.2x    frame=33713 fps=484 q=-0.0 size=N/A time=00:23:26.11 bitrate=N/A speed=20.2x    frame=33894 fps=483 q=-0.0 size=N/A time=00:23:33.66 bitrate=N/A speed=20.1x    frame=34099 fps=482 q=-0.0 size=N/A time=00:23:42.21 bitrate=N/A speed=20.1x    frame=34306 fps=482 q=-0.0 size=N/A time=00:23:50.84 bitrate=N/A speed=20.1x    [Parsed_ssim_10 @ 0000023655e29a00] SSIM Y:0.994338 (22.470594) U:0.992822 (21.439727) V:0.992560 (21.284178) All:0.993789 (22.068498)
[out#0/null @ 0000023653514440] video:14799KiB audio:269380KiB subtitle:0KiB other streams:0KiB global headers:0KiB muxing overhead: unknown
frame=34442 fps=482 q=-0.0 Lsize=N/A time=00:23:56.51 bitrate=N/A speed=20.1x    
